# xmcd
#
# Track frame offsets:
#	150
#	12436
#	32676
#	45344
#	65167
#	86086
#	102867
#	121665
#	138569
#	155585
#	192307
#	207969
#	224010
#	238324
#	257565
#	270740
#	289812
#
# Disc length: 4130 seconds
#
# Revision: 1
# Processed by: cddbd v1.5.2PL0 Copyright (c) Steve Scherf et al.
# Submitted via: audiograbber 1.83.01
#
DISCID=03102011
DTITLE=Cripple Creek Band - Live 4 You
DYEAR=2007
DGENRE=Country
TTITLE0=Nothing to loose
TTITLE1=The World
TTITLE2=Size Matters
TTITLE3=Wave on Wave
TTITLE4=Grace of God
TTITLE5=Schwabensolo
TTITLE6=Catfish John
TTITLE7=After Last Night
TTITLE8=Cutoff Jeans
TTITLE9=Doreen
TTITLE10=Money For Nothing
TTITLE11=My Old Friend
TTITLE12=Summersun
TTITLE13=Down in Nashville
TTITLE14=She Don't Love Nobody
TTITLE15=Backwards
TTITLE16=I Am a Man of Constant Sorrow
EXTD=
EXTT0=
EXTT1=
EXTT2=
EXTT3=
EXTT4=
EXTT5=
EXTT6=
EXTT7=
EXTT8=
EXTT9=
EXTT10=
EXTT11=
EXTT12=
EXTT13=
EXTT14=
EXTT15=
EXTT16=
PLAYORDER=
